<svg width="1000" height="1191" viewBox="0 0 1000 1191" fill="none" xmlns="http://www.w3.org/2000/svg">
<circle cx="500" cy="596" r="500" fill="#1D181C"/>
<path d="M529.491 380.24C503.843 380.24 485.828 375.049 475.447 364.668C465.676 354.287 460.791 341.463 460.791 326.196V306.96C460.791 291.693 465.676 278.869 475.447 268.488C485.828 258.107 503.538 252.916 528.575 252.916C554.223 252.916 571.932 258.107 581.703 268.488C592.084 278.869 597.275 291.693 597.275 306.96V326.196C597.275 341.463 592.084 354.287 581.703 364.668C571.932 375.049 554.528 380.24 529.491 380.24ZM317.895 858.392H479.111V546.952H317.895V466.344H578.955V858.392H730.095V939H317.895V858.392Z" fill="white"/>
</svg>
