<svg width="75" height="74" viewBox="0 0 75 74" fill="none" xmlns="http://www.w3.org/2000/svg">
<path d="M37.7609 73.7599C58.0966 73.7599 74.5819 57.2746 74.5819 36.9389C74.5819 16.6032 58.0966 0.11792 37.7609 0.11792C17.4253 0.11792 0.939941 16.6032 0.939941 36.9389C0.939941 57.2746 17.4253 73.7599 37.7609 73.7599Z" fill="#3CC8C8"/>
<path d="M37.0569 10.5939C38.3069 9.94191 39.8329 11.4539 39.1689 12.7039C38.7829 13.7219 37.3199 13.9929 36.5729 13.2169C35.7819 12.4709 36.0399 10.9989 37.0569 10.5939ZM23.6099 12.0429C24.3699 11.7299 25.3309 12.4259 25.2529 13.2539C25.3339 14.1529 24.2349 14.8139 23.4609 14.3869C22.4349 13.9899 22.5519 12.3249 23.6099 12.0429ZM51.1519 14.4129C49.9649 14.2699 49.7769 12.4029 50.9199 12.0279C51.8059 11.5959 52.6189 12.4059 52.7489 13.2459C52.5629 13.9629 51.9629 14.6199 51.1519 14.4129ZM26.6689 17.7669C27.9389 16.9639 29.7509 18.1599 29.5549 19.6349C29.4889 21.1239 27.5109 21.9869 26.3949 20.9799C25.3169 20.1889 25.4799 18.3749 26.6689 17.7669ZM46.0529 18.6189C46.6189 17.1589 48.9149 17.1149 49.5599 18.5359C50.1969 19.6419 49.4129 21.0119 48.2779 21.3879C46.7739 21.6689 45.3449 20.0429 46.0529 18.6189ZM35.4379 21.3049C35.4259 20.0499 36.5689 19.1149 37.7609 19.0299C38.5519 19.1889 39.4139 19.5259 39.7539 20.3239C40.3859 21.4249 39.8249 22.9409 38.6819 23.4469C38.1589 23.7399 37.5409 23.6299 36.9719 23.5959C36.1019 23.1679 35.3699 22.3299 35.4379 21.3049ZM15.4389 23.1329C16.5989 22.4199 18.1639 23.7209 17.7249 24.9809C17.4829 26.0709 16.0179 26.5139 15.1809 25.8189C14.2859 25.1669 14.4279 23.5999 15.4389 23.1329ZM58.3839 23.1309C59.3679 22.3669 60.9919 23.2429 60.8749 24.4859C60.9409 25.6189 59.5369 26.4729 58.5599 25.8899C57.4839 25.4059 57.3739 23.7509 58.3839 23.1309ZM41.0619 25.3869C42.6859 24.8039 44.6149 25.5019 45.5409 26.9499C46.7619 28.7199 46.1119 31.4159 44.2169 32.4309C42.2539 33.6319 39.3869 32.6139 38.6619 30.4219C37.8389 28.4589 39.0379 26.0019 41.0619 25.3869ZM31.5339 25.5799C33.3339 24.7299 35.7559 25.4429 36.6259 27.2839C37.6489 29.0759 36.8579 31.5719 35.0289 32.4969C33.1979 33.5369 30.6139 32.7489 29.7279 30.8249C28.7329 28.9639 29.6149 26.4369 31.5339 25.5799ZM21.9929 28.8419C22.1299 27.6819 23.2239 26.9279 24.3279 26.8499C25.5169 26.9929 26.4669 27.9169 26.5959 29.1209C26.5179 30.3119 25.5969 31.4769 24.3349 31.4699C22.9449 31.5889 21.7279 30.2069 21.9929 28.8419ZM50.1729 27.1019C51.5989 26.2719 53.5789 27.4799 53.5159 29.1189C53.6139 30.8549 51.4219 32.0779 50.0019 31.0599C48.5269 30.2109 48.6419 27.8239 50.1729 27.1019ZM27.6559 33.2199C29.3239 32.7609 31.2309 33.5469 32.0489 35.0799C32.9449 36.6229 32.5789 38.7669 31.1869 39.8989C29.4019 41.5589 26.1099 40.8929 25.1599 38.6269C24.0689 36.5499 25.3949 33.7659 27.6559 33.2199ZM45.7289 33.2109C47.3499 32.7469 49.2549 33.3719 50.1269 34.8489C51.2789 36.5379 50.7289 39.0579 49.0139 40.1469C47.2169 41.4109 44.4329 40.7479 43.4439 38.7699C42.2439 36.7249 43.4509 33.8349 45.7289 33.2109ZM16.9279 35.1389C18.3689 34.5939 19.9659 36.1839 19.3819 37.6119C19.0249 38.9129 17.1909 39.3939 16.2439 38.4349C15.1359 37.5339 15.5469 35.5289 16.9279 35.1389ZM55.9799 37.2119C55.9379 36.0179 56.8119 34.9609 58.0359 34.8949C59.0229 35.0509 59.9819 35.8469 59.9039 36.9209C59.9939 38.3399 58.2849 39.3039 57.0759 38.6379C56.5089 38.3489 56.2189 37.7679 55.9799 37.2119ZM9.8439 35.8389C10.7109 35.4609 11.7829 36.2119 11.5849 37.1749C11.5389 38.2649 9.9289 38.6839 9.3379 37.7729C8.8159 37.1409 9.1289 36.1649 9.8439 35.8389ZM64.4969 35.8179C65.1069 35.3829 66.0869 35.6959 66.3279 36.4089C66.7379 37.1879 65.9859 38.2549 65.1099 38.1229C63.8799 38.2339 63.4809 36.3589 64.4969 35.8179ZM32.3639 41.0489C34.6449 40.4559 37.0969 42.3579 37.1109 44.7059C37.2599 47.0789 34.8449 49.1839 32.5099 48.6359C30.7049 48.3449 29.2889 46.6069 29.3479 44.7829C29.3429 43.0399 30.6589 41.4179 32.3639 41.0489ZM41.3969 41.0449C43.7119 40.3979 46.2369 42.3339 46.1999 44.7369C46.3219 47.0659 43.9829 49.0999 41.6969 48.6379C39.5459 48.3599 37.9589 45.9959 38.5589 43.9089C38.8619 42.5169 40.0239 41.3859 41.3969 41.0449ZM23.9809 42.4899C25.5829 42.2169 27.0849 44.0039 26.4349 45.5249C25.9609 47.1459 23.6019 47.5859 22.5589 46.2609C21.3359 44.9899 22.2489 42.6659 23.9809 42.4899ZM50.4709 42.5619C51.8989 41.9639 53.6529 43.1989 53.5429 44.7499C53.5999 46.4559 51.4359 47.6329 50.0389 46.6369C48.4559 45.7419 48.7439 43.1099 50.4709 42.5619ZM57.8749 49.9879C57.3159 48.9449 58.3319 47.5639 59.4889 47.7569C60.0649 47.7469 60.4679 48.2009 60.8369 48.5819C60.9129 49.1999 61.0399 49.9369 60.5269 50.4129C59.8309 51.2939 58.2529 51.0429 57.8749 49.9879ZM15.4339 48.0469C16.5159 47.3269 18.0729 48.4009 17.8299 49.6659C17.7009 50.7849 16.2919 51.4239 15.3629 50.7889C14.3669 50.2129 14.4039 48.5719 15.4339 48.0469ZM36.8079 50.3889C38.2239 49.7639 40.0289 50.9969 39.8949 52.5569C39.9999 54.2809 37.7679 55.4749 36.3829 54.4399C34.8449 53.5499 35.1019 50.9349 36.8079 50.3889ZM26.9089 52.6979C28.1149 52.0629 29.7339 53.1589 29.6239 54.5099C29.6609 55.6189 28.5789 56.5629 27.4849 56.3999C26.5789 56.3799 25.9879 55.5679 25.6969 54.7959C25.7119 53.9529 26.0589 53.0159 26.9089 52.6979ZM46.9619 52.7169C48.2029 51.9499 49.9659 53.0509 49.8479 54.4949C49.8799 56.0039 47.8869 56.9709 46.7319 55.9789C45.6139 55.2029 45.7499 53.3349 46.9619 52.7169ZM50.4489 61.3389C49.8969 60.5039 50.5469 59.4979 51.4429 59.3079C52.1639 59.4549 52.9249 59.9959 52.7739 60.8319C52.6689 61.9609 51.0159 62.3079 50.4489 61.3389ZM22.7669 60.6129C22.9869 59.9509 23.5189 59.2939 24.2979 59.4659C25.4339 59.5469 25.7709 61.2579 24.7769 61.7859C23.8829 62.3879 22.8459 61.5629 22.7669 60.6129ZM36.1219 61.3729C36.3389 60.3939 37.6069 59.9179 38.4419 60.4379C38.9939 60.6749 39.1549 61.2929 39.2969 61.8169C39.2209 62.0899 39.1529 62.3639 39.0869 62.6369C38.7449 63.0429 38.3059 63.4479 37.7369 63.4329C36.6789 63.5569 35.7249 62.3619 36.1219 61.3729Z" fill="white"/>
</svg>
