<svg width="85" height="85" viewBox="0 0 85 85" fill="none" xmlns="http://www.w3.org/2000/svg">
<path d="M78.7436 48.2621C81.9647 28.1826 68.2984 9.2937 48.219 6.07253C28.1395 2.85136 9.25064 16.5177 6.02947 36.5972C2.80829 56.6766 16.4746 75.5655 36.5541 78.7867C56.6335 82.0078 75.5224 68.3415 78.7436 48.2621Z" fill="#E84142"/>
<path fill-rule="evenodd" clip-rule="evenodd" d="M31.9239 57.094H24.7779C23.2759 57.094 22.5348 57.094 22.0818 56.805C21.5938 56.488 21.2948 55.964 21.2588 55.385C21.2318 54.851 21.6028 54.2 22.3448 52.898L39.9889 21.798C40.7399 20.477 41.1198 19.817 41.5988 19.573C42.1148 19.311 42.7298 19.311 43.2448 19.573C43.7238 19.817 44.1038 20.478 44.8548 21.798L48.4818 28.13L48.4998 28.162C49.3108 29.579 49.7218 30.297 49.9018 31.051C50.1008 31.874 50.1008 32.742 49.9018 33.566C49.7208 34.326 49.3139 35.049 48.4909 36.488L39.2229 52.871L39.1988 52.913C38.3828 54.341 37.9688 55.065 37.3958 55.612C36.7718 56.209 36.0208 56.643 35.1978 56.888C34.4478 57.094 33.6069 57.094 31.9239 57.094Z" fill="white"/>
<path fill-rule="evenodd" clip-rule="evenodd" d="M49.97 57.094H60.209C61.72 57.094 62.48 57.0939 62.932 56.7959C63.42 56.4789 63.728 55.9449 63.755 55.3669C63.781 54.8509 63.418 54.225 62.707 52.998C62.682 52.956 62.658 52.914 62.633 52.87L57.5041 44.096L57.446 43.997C56.725 42.778 56.361 42.163 55.894 41.925C55.379 41.663 54.772 41.663 54.257 41.925C53.787 42.169 53.407 42.811 52.656 44.105L47.545 52.8789L47.527 52.9089C46.779 54.1999 46.405 54.846 46.432 55.375C46.468 55.954 46.767 56.487 47.255 56.804C47.7 57.094 48.46 57.094 49.97 57.094Z" fill="white"/>
</svg>
