<svg width="75" height="74" viewBox="0 0 75 74" fill="none" xmlns="http://www.w3.org/2000/svg">
<path d="M37.6419 0.118958C57.9779 0.118958 74.4629 16.604 74.4629 36.94C74.4629 57.276 57.9779 73.761 37.6419 73.761C17.3059 73.761 0.820923 57.276 0.820923 36.94C0.820923 16.604 17.3059 0.118958 37.6419 0.118958Z" fill="#F0B90B"/>
<path d="M28.1139 32.984L33.6889 27.428L34.8649 26.252L37.6509 23.466L47.1379 32.984L52.6609 27.428L37.6509 12.392L22.5909 27.428L28.1139 32.984Z" fill="white"/>
<path d="M37.6569 31.3818L32.1111 36.9276L37.6569 42.4734L43.2027 36.9276L37.6569 31.3818Z" fill="white"/>
<path d="M47.1379 40.907L37.6479 50.398L34.3149 47.065L33.7019 46.452L28.1139 40.907L22.5909 46.43L37.6509 61.465L52.6609 46.43L47.1379 40.907Z" fill="white"/>
<path d="M18.6389 31.397L13.0931 36.9427L18.6389 42.4885L24.1847 36.9428L18.6389 31.397Z" fill="white"/>
<path d="M56.6431 31.3962L51.0973 36.942L56.6431 42.4877L62.1889 36.942L56.6431 31.3962Z" fill="white"/>
</svg>
