<svg width="75" height="75" viewBox="0 0 75 75" fill="none" xmlns="http://www.w3.org/2000/svg">
<path d="M73.353 46.349C68.435 66.075 48.455 78.078 28.727 73.16C9.008 68.242 -2.996 48.262 1.923 28.538C6.839 8.81001 26.817 -3.19599 46.539 1.72201C66.266 6.64001 78.269 26.622 73.351 46.349H73.353Z" fill="#F7931A"/>
<path d="M53.8721 32.196C54.6041 27.297 50.8741 24.663 45.7731 22.906L47.4281 16.269L43.3871 15.262L41.7761 21.724C40.7151 21.459 39.6241 21.21 38.5401 20.962L40.1621 14.457L36.1241 13.45L34.4681 20.085C33.5891 19.885 32.7261 19.687 31.8881 19.479L31.8931 19.458L26.3221 18.067L25.2471 22.382C25.2471 22.382 28.2441 23.069 28.1811 23.111C29.8171 23.519 30.1141 24.602 30.0631 25.461L28.1731 33.051L25.5301 43.643C25.3301 44.14 24.8221 44.886 23.6791 44.603C23.7191 44.662 20.7431 43.87 20.7431 43.87L18.7371 48.496L23.9951 49.807C24.9731 50.052 25.9311 50.309 26.8741 50.55L25.2021 57.264L29.2371 58.271L30.8941 51.63C31.9951 51.929 33.0651 52.205 34.1121 52.465L32.4621 59.075L36.5021 60.082L38.1741 53.382C45.0631 54.686 50.2441 54.16 52.4221 47.93C54.1791 42.913 52.3361 40.019 48.7111 38.131C51.3511 37.52 53.3391 35.784 53.8691 32.197L53.8721 32.196ZM44.6411 45.14C43.3911 50.157 34.9461 47.446 32.2061 46.765L34.4241 37.872C37.1631 38.556 45.9431 39.909 44.6421 45.141L44.6411 45.14ZM45.8891 32.124C44.7501 36.688 37.7191 34.369 35.4381 33.801L37.4491 25.735C39.7311 26.302 47.0771 27.363 45.8891 32.124Z" fill="white"/>
</svg>
