<svg width="86" height="86" viewBox="0 0 86 86" fill="none" xmlns="http://www.w3.org/2000/svg">
<path d="M79.2682 49.208C82.7273 29.1692 69.2868 10.1204 49.248 6.6613C29.2093 3.2022 10.1605 16.6427 6.70137 36.6815C3.24227 56.7203 16.6827 75.7691 36.7215 79.2282C56.7603 82.6873 75.8091 69.2468 79.2682 49.208Z" fill="#E6007A"/>
<path d="M43.0001 25.878C48.8548 25.878 53.6011 23.1178 53.6011 19.713C53.6011 16.3081 48.8548 13.548 43.0001 13.548C37.1453 13.548 32.399 16.3081 32.399 19.713C32.399 23.1178 37.1453 25.878 43.0001 25.878Z" fill="white"/>
<path d="M43.0001 72.331C48.8548 72.331 53.6011 69.5708 53.6011 66.166C53.6011 62.7611 48.8548 60.001 43.0001 60.001C37.1453 60.001 32.399 62.7611 32.399 66.166C32.399 69.5708 37.1453 72.331 43.0001 72.331Z" fill="white"/>
<path d="M17.5431 28.243C20.4701 23.173 25.2351 20.444 28.1861 22.148C31.1371 23.852 31.1561 29.343 28.2281 34.413C25.3011 39.483 20.5361 42.212 17.5851 40.508C14.6341 38.804 14.6151 33.313 17.5431 28.243Z" fill="white"/>
<path d="M57.7761 51.4709C60.7031 46.4009 65.4671 43.6709 68.4151 45.3729C71.3641 47.0749 71.3811 52.5659 68.4541 57.636C65.5271 62.706 60.7631 65.436 57.8151 63.733C54.8661 62.031 54.8481 56.5409 57.7761 51.4709Z" fill="white"/>
<path d="M17.587 45.372C20.538 43.668 25.303 46.397 28.23 51.467C31.157 56.537 31.138 62.028 28.188 63.732C25.237 65.436 20.472 62.707 17.545 57.637C14.617 52.567 14.636 47.076 17.587 45.372Z" fill="white"/>
<path d="M57.817 22.149C60.766 20.447 65.529 23.176 68.456 28.246C71.383 33.316 71.366 38.806 68.417 40.509C65.468 42.211 60.7051 39.482 57.7781 34.412C54.8511 29.341 54.868 23.851 57.817 22.149Z" fill="white"/>
</svg>
