<svg width="89" height="89" viewBox="0 0 89 89" fill="none" xmlns="http://www.w3.org/2000/svg">
<path d="M80.6294 52.7688C85.2293 32.9598 72.8999 13.1724 53.091 8.57251C33.282 3.97258 13.4946 16.302 8.89471 36.1109C4.29478 55.9199 16.6242 75.7073 36.4331 80.3072C56.2421 84.9071 76.0294 72.5777 80.6294 52.7688Z" fill="#627EEA"/>
<path d="M45.903 16.826V37.239L63.156 44.948L45.903 16.826Z" fill="white" fill-opacity="0.602"/>
<path d="M45.903 16.826L28.6479 44.948L45.903 37.239V16.826Z" fill="white"/>
<path d="M45.903 58.176V72.046L63.167 48.161L45.903 58.176Z" fill="white" fill-opacity="0.602"/>
<path d="M45.903 72.046V58.174L28.6479 48.16L45.903 72.046Z" fill="white"/>
<path d="M45.903 54.965L63.156 44.947L45.903 37.242V54.965Z" fill="white" fill-opacity="0.2"/>
<path d="M28.6479 44.948L45.903 54.966V37.243L28.6479 44.948Z" fill="white" fill-opacity="0.602"/>
</svg>
