<svg width="74" height="74" viewBox="0 0 74 74" fill="none" xmlns="http://www.w3.org/2000/svg">
<path d="M36.88 73.7599C57.2157 73.7599 73.701 57.2746 73.701 36.9389C73.701 16.6032 57.2157 0.11792 36.88 0.11792C16.5443 0.11792 0.05896 16.6032 0.05896 36.9389C0.05896 57.2746 16.5443 73.7599 36.88 73.7599Z" fill="#F30504"/>
<path d="M51.305 39.7749C51.279 39.9129 50.873 40.3279 50.466 40.6309C49.273 41.5039 47.138 42.3169 44.968 42.7059C43.732 42.9309 42.4961 42.9649 42.1241 42.7839C41.8821 42.6629 41.847 42.5679 41.934 42.2569C42.116 41.6089 42.703 40.8999 43.62 40.2339C44.087 39.8969 45.98 38.7469 46.862 38.2629C48.314 37.4679 49.4901 36.9919 50.2851 36.8799C50.5361 36.8449 50.838 36.8369 50.933 36.8799C51.089 36.9399 51.261 37.3989 51.331 37.9519C51.365 38.2449 51.348 39.5419 51.305 39.7749Z" fill="black"/>
<path d="M30.9371 42.637C30.8851 42.741 30.6261 42.853 30.3321 42.896C30.0381 42.939 29.1391 42.913 28.6291 42.853C26.7961 42.611 24.851 42.049 23.433 41.357C22.638 40.968 22.067 40.579 21.643 40.155L21.401 39.904L21.375 39.576C21.332 39.005 21.3401 38.106 21.4101 37.786C21.4531 37.518 21.548 37.259 21.678 37.025C21.747 36.939 21.747 36.939 22.058 36.939C22.438 36.939 22.758 37 23.277 37.164C24.34 37.493 25.922 38.288 27.85 39.446C29.441 40.397 30.037 40.864 30.495 41.503C30.807 41.902 31.0151 42.464 30.9371 42.637Z" fill="black"/>
<path d="M43.178 54.6699C43.178 54.6959 43.0739 55.1109 42.9449 55.6039C42.8149 56.0969 42.712 56.4949 42.712 56.5119C42.617 56.5209 42.53 56.5289 42.436 56.5209H42.1589L41.7789 57.4199C41.5719 57.9129 41.381 58.3709 41.355 58.4399L41.303 58.5609L41.121 58.2669L40.939 57.9729V55.5779L40.87 55.5949C40.723 55.6299 39.677 55.7679 39.219 55.8109C37.326 56.0009 35.4239 55.9579 33.5389 55.6899C33.2359 55.6469 32.977 55.6119 32.969 55.6209C32.96 55.6299 32.969 56.1829 32.986 56.8659L33.012 58.0939L32.865 58.3189C32.787 58.4399 32.709 58.5439 32.709 58.5519C32.683 58.5779 32.5969 58.4399 32.3979 58.0419C32.1819 57.6269 32.0259 57.1859 31.9139 56.7279L31.854 56.4769L31.5859 56.4939L31.318 56.5199L31.249 56.1999C31.214 56.0269 31.1709 55.7589 31.1539 55.6119L31.1279 55.3349L30.903 55.1359C30.773 55.0239 30.6439 54.9109 30.6179 54.8939C30.5749 54.8589 30.557 54.7989 30.557 54.7469V54.6429L31.6379 54.6519L32.719 54.6609L32.7529 54.7729L32.788 54.8849L33.16 54.9019C33.367 54.9109 34.0249 54.9279 34.6119 54.9449L35.693 54.9709L35.97 54.5389L36.255 54.1069H36.6179L36.609 53.2079L36.6 52.3089L36.125 52.1009C34.595 51.4269 33.696 50.6569 33.359 49.7239C33.29 49.5339 33.2899 49.4649 33.2729 48.5999C33.2639 47.7439 33.264 47.6659 33.325 47.4759C33.446 47.0439 33.7829 46.7069 34.2159 46.5939C34.3629 46.5509 34.752 46.5509 36.792 46.5509L39.1949 46.5599L39.463 46.6899C39.783 46.8459 39.93 46.9579 40.111 47.1999C40.319 47.4769 40.379 47.6929 40.379 48.2199C40.379 48.9719 40.327 49.6209 40.249 49.8799C40.137 50.2339 39.9639 50.5719 39.7479 50.8739C39.3159 51.4269 38.529 51.9809 37.812 52.2309L37.604 52.3089L37.613 53.2169L37.6219 54.1249L37.812 54.1419L38.002 54.1589L38.261 54.5479L38.512 54.9369H39.6699C40.3099 54.9369 40.872 54.9459 40.924 54.9539C41.01 54.9709 41.028 54.9629 41.114 54.8159L41.218 54.6599H42.212C42.954 54.6269 43.178 54.6439 43.178 54.6699Z" fill="black"/>
<path d="M38.614 57.1519C38.45 57.2469 38.337 57.2899 38.312 57.2729C38.286 57.2639 38.165 57.1609 38.035 57.0659L37.802 56.8759L37.5599 57.1349C37.0329 57.7059 37.015 57.731 36.86 57.74C36.618 57.766 36.566 57.723 36.272 57.282C36.116 57.057 35.995 56.8669 35.995 56.8669C35.995 56.8669 35.8829 56.8499 35.7529 56.8409L35.511 56.8149L35.3989 57.0479L35.287 57.2809L35.088 57.2209C34.932 57.1689 34.777 57.1089 34.63 57.0389L34.371 56.9089V56.416L36.671 56.425L38.9709 56.434L38.98 56.667C38.986 56.944 38.994 56.9359 38.614 57.1519Z" fill="black"/>
<path d="M60.226 46.605C60.217 46.57 60.217 46.51 60.209 46.415C58.134 46.19 52.212 46.052 46.714 50.591C46.714 50.591 44.942 42.465 36.643 42.465C28.344 42.465 25.266 50.591 25.266 50.591C20.615 45.585 14.391 45.949 12.143 46.277C12.143 46.329 12.1341 46.389 12.1341 46.441C12.0651 47.694 12.099 48.291 12.307 49.078C12.955 51.542 14.9521 54.256 18.0821 56.919C23.2081 61.276 30.159 64.423 35.424 64.786C40.914 65.158 49.014 61.95 54.408 57.265C55.255 56.513 56.051 55.718 56.794 54.87C57.33 54.248 58.125 53.176 58.065 53.176C58.048 53.176 58.065 53.159 58.1 53.141C58.126 53.124 58.152 53.098 58.135 53.08C58.126 53.071 58.144 53.045 58.17 53.037C58.196 53.028 58.213 53.011 58.205 52.994C58.196 52.977 58.205 52.959 58.24 52.951C58.266 52.942 58.275 52.916 58.266 52.899C58.257 52.882 58.266 52.864 58.283 52.864C58.3 52.864 58.318 52.838 58.318 52.821C58.318 52.804 58.335 52.778 58.352 52.778C58.369 52.778 58.387 52.761 58.387 52.743C58.413 52.674 58.4561 52.605 58.4991 52.544C58.6291 52.345 59.147 51.42 59.216 51.264C59.709 50.149 60.02 49.155 60.167 48.161C60.218 47.685 60.261 46.812 60.226 46.605ZM38.614 57.152C38.45 57.247 38.337 57.29 38.312 57.273C38.286 57.264 38.1651 57.161 38.0351 57.066L37.802 56.876L37.56 57.135C37.033 57.706 37.015 57.731 36.86 57.74C36.618 57.766 36.566 57.723 36.272 57.282C36.116 57.057 35.995 56.867 35.995 56.867C35.995 56.867 35.883 56.85 35.753 56.841L35.511 56.815L35.399 57.048L35.287 57.281L35.088 57.221C34.932 57.169 34.777 57.109 34.63 57.039L34.371 56.909V56.416L36.6711 56.425L38.971 56.434L38.98 56.667C38.986 56.944 38.994 56.936 38.614 57.152ZM42.9361 55.596C42.8061 56.089 42.7021 56.486 42.7021 56.504C42.6071 56.513 42.52 56.521 42.425 56.513H42.148L41.776 57.421C41.569 57.914 41.378 58.372 41.352 58.441L41.3 58.562L41.118 58.268L40.9361 57.974V55.579L40.867 55.596C40.72 55.631 39.674 55.769 39.216 55.812C37.323 56.002 35.421 55.959 33.536 55.691C33.233 55.648 32.974 55.613 32.966 55.622C32.957 55.631 32.9661 56.184 32.9831 56.867L33.0091 58.095L32.862 58.32C32.784 58.441 32.706 58.545 32.706 58.553C32.68 58.579 32.5941 58.441 32.3951 58.043C32.1791 57.628 32.023 57.187 31.911 56.729L31.851 56.478L31.583 56.495L31.315 56.521L31.246 56.201C31.211 56.028 31.168 55.76 31.151 55.613L31.125 55.336L30.9001 55.137C30.7701 55.025 30.641 54.912 30.615 54.895C30.572 54.86 30.554 54.8 30.554 54.748V54.644L31.635 54.653L32.716 54.662L32.75 54.774L32.7851 54.886L33.157 54.903C33.364 54.912 34.022 54.929 34.609 54.946L35.69 54.972L35.967 54.54L36.252 54.108H36.615L36.606 53.209L36.597 52.31L36.122 52.102C34.592 51.428 33.693 50.658 33.356 49.725C33.287 49.535 33.2871 49.466 33.2701 48.601C33.2611 47.745 33.2611 47.667 33.3221 47.477C33.4431 47.045 33.78 46.708 34.213 46.595C34.36 46.552 34.749 46.552 36.789 46.552L39.1921 46.561L39.46 46.691C39.78 46.847 39.9271 46.959 40.1081 47.201C40.3161 47.478 40.376 47.694 40.376 48.221C40.376 48.973 40.324 49.622 40.246 49.881C40.134 50.235 39.961 50.573 39.745 50.875C39.313 51.428 38.526 51.982 37.809 52.232L37.601 52.31L37.61 53.218L37.6191 54.126L37.809 54.143L37.9991 54.16L38.258 54.549L38.5091 54.938H39.667C40.307 54.938 40.8691 54.947 40.9211 54.955C41.0071 54.972 41.025 54.964 41.111 54.817L41.215 54.661H42.209C42.978 54.661 43.203 54.67 43.203 54.696C43.178 54.688 43.0661 55.111 42.9361 55.596Z" fill="white"/>
<path d="M60.157 45.723C60.14 45.334 60.105 44.789 60.079 44.521C59.707 40.596 58.704 37.3889 56.803 33.9909C56.725 33.8609 56.656 33.732 56.613 33.628C56.596 33.602 56.587 33.576 56.578 33.559C56.846 32.755 57.944 29.392 58.817 25.545C60.001 20.323 60.754 14.22 58.454 12.387C58.454 12.387 54.477 12.093 49.152 17.315C47.708 18.759 46.386 20.324 45.21 21.992L44.838 21.871C42.694 21.171 40.472 20.738 38.233 20.592C37.559 20.54 35.0429 20.54 34.2219 20.592C31.7409 20.756 29.839 21.128 27.678 21.88C27.592 21.915 27.514 21.941 27.436 21.966C26.217 20.306 24.86 18.75 23.364 17.324C17.823 12.077 13.699 12.379 13.699 12.379C11.261 14.272 12.091 20.6519 13.353 26.0469C14.183 29.6169 15.203 32.755 15.583 33.888C15.557 33.949 15.522 34.018 15.488 34.078C13.474 38.159 12.384 42.092 12.125 46.276C14.381 45.947 20.597 45.576 25.257 50.59C25.257 50.59 28.335 42.464 36.634 42.464C44.933 42.464 46.7059 50.59 46.7059 50.59C52.2039 46.051 58.1259 46.198 60.2009 46.414C60.1919 46.242 60.174 45.982 60.157 45.723ZM17.2169 30.629C17.2169 30.629 13.984 22.546 14.814 17.929C14.952 17.151 15.2119 16.468 15.6179 15.949C15.6179 15.949 19.284 16.312 25.197 22.882C25.197 22.882 24.073 23.427 22.569 24.585C22.569 24.585 22.56 24.5939 22.552 24.5939C20.918 25.8479 18.8249 27.836 17.2169 30.629ZM30.937 42.637C30.885 42.741 30.626 42.8529 30.332 42.8959C30.038 42.9389 29.139 42.9129 28.629 42.8529C26.796 42.6109 24.851 42.0489 23.433 41.3569C22.638 40.9679 22.0669 40.579 21.6429 40.155L21.401 39.904L21.375 39.576C21.332 39.005 21.34 38.106 21.41 37.786C21.453 37.518 21.548 37.259 21.678 37.025C21.747 36.939 21.747 36.9389 22.058 36.9389C22.438 36.9389 22.758 37 23.277 37.164C24.34 37.493 25.922 38.288 27.85 39.446C29.441 40.397 30.037 40.864 30.495 41.503C30.807 41.902 31.015 42.464 30.937 42.637ZM51.3049 39.775C51.2789 39.913 50.8729 40.328 50.4659 40.631C49.2729 41.504 47.138 42.317 44.968 42.706C43.732 42.931 42.496 42.9649 42.124 42.7839C41.882 42.6629 41.847 42.568 41.934 42.257C42.116 41.609 42.703 40.9 43.62 40.234C44.087 39.897 45.9799 38.747 46.8619 38.263C48.3139 37.468 49.49 36.992 50.285 36.88C50.536 36.845 50.838 36.837 50.933 36.88C51.089 36.94 51.2609 37.3989 51.3309 37.9519C51.3649 38.2449 51.3479 39.542 51.3049 39.775ZM49.87 24.586L49.853 24.5769C48.401 23.4179 47.311 22.874 47.311 22.874C53.025 16.304 56.561 15.941 56.561 15.941C56.95 16.468 57.201 17.143 57.339 17.921C58.143 22.537 55.022 30.629 55.022 30.629C53.717 28.303 51.962 26.246 49.87 24.586Z" fill="#FFA409"/>
<path d="M57.348 17.92C56.674 17.834 53.484 17.816 49.87 24.585L49.853 24.576C48.401 23.417 47.311 22.873 47.311 22.873C53.025 16.303 56.561 15.9399 56.561 15.9399C56.959 16.4679 57.209 17.142 57.348 17.92Z" fill="#FF9300"/>
<path d="M55.031 30.6289C53.717 28.2949 51.971 26.2459 49.87 24.5859C53.484 17.8169 56.665 17.8339 57.348 17.9209C58.152 22.5459 55.031 30.6289 55.031 30.6289Z" fill="#FF8300"/>
<path d="M57.4769 17.9459C57.4339 17.9369 57.3899 17.9289 57.3469 17.9199L57.4769 17.9459Z" fill="#FF8300"/>
<path d="M25.197 22.8739C25.197 22.8739 24.073 23.4189 22.569 24.5769C22.569 24.5769 22.56 24.5859 22.552 24.5859C18.809 17.8079 15.515 17.8339 14.806 17.9209C14.944 17.1429 15.204 16.4599 15.61 15.9409C15.618 15.9409 19.284 16.3039 25.197 22.8739Z" fill="#FF9300"/>
<path d="M22.56 24.5859C20.917 25.8479 18.825 27.8279 17.217 30.6289C17.217 30.6289 13.984 22.5459 14.814 17.9209C15.514 17.8339 18.817 17.8169 22.56 24.5859Z" fill="#FF8300"/>
<path d="M14.814 17.9199C14.771 17.9289 14.719 17.9369 14.676 17.9459L14.814 17.9199Z" fill="#FF8300"/>
<path d="M46.282 35.115C46.282 35.115 43.516 35.288 43.861 33.127C44.207 30.966 46.368 30.706 46.973 30.793C47.578 30.88 49.999 31.744 49.567 33.559C49.135 35.374 48.53 35.029 48.184 35.115C47.838 35.202 46.282 35.115 46.282 35.115Z" fill="white"/>
<path d="M25.88 35.115C25.88 35.115 23.114 35.288 23.459 33.127C23.805 30.966 25.9659 30.706 26.5709 30.793C27.1759 30.88 29.5969 31.744 29.1649 33.559C28.7329 35.374 28.128 35.029 27.782 35.115C27.436 35.202 25.88 35.115 25.88 35.115Z" fill="white"/>
</svg>
