<svg width="74" height="75" viewBox="0 0 74 75" fill="none" xmlns="http://www.w3.org/2000/svg">
<path d="M36.8779 74.262C57.2135 74.262 73.6989 57.7767 73.6989 37.441C73.6989 17.1053 57.2135 0.619995 36.8779 0.619995C16.5422 0.619995 0.0568848 17.1053 0.0568848 37.441C0.0568848 57.7767 16.5422 74.262 36.8779 74.262Z" fill="url(#paint0_linear_22_43)"/>
<path d="M19.4379 48.1C19.7499 47.788 20.1779 47.606 20.6329 47.606H61.8639C62.6169 47.606 62.9939 48.515 62.4619 49.048L54.3169 57.193C54.0049 57.505 53.5769 57.687 53.1219 57.687H11.8909C11.1379 57.687 10.7609 56.778 11.2929 56.245L19.4379 48.1Z" fill="white"/>
<path d="M19.4379 17.69C19.7629 17.378 20.1909 17.196 20.6329 17.196H61.8639C62.6169 17.196 62.9939 18.105 62.4619 18.638L54.3169 26.783C54.0049 27.095 53.5769 27.277 53.1219 27.277H11.8909C11.1379 27.277 10.7609 26.368 11.2929 25.835L19.4379 17.69Z" fill="white"/>
<path d="M54.3169 32.798C54.0049 32.486 53.5769 32.304 53.1219 32.304H11.8909C11.1379 32.304 10.7609 33.213 11.2929 33.746L19.4379 41.891C19.7499 42.203 20.1779 42.385 20.6329 42.385H61.8639C62.6169 42.385 62.9939 41.476 62.4619 40.943L54.3169 32.798Z" fill="white"/>
<defs>
<linearGradient id="paint0_linear_22_43" x1="69.1517" y1="4.5303" x2="9.29308" y2="65.5703" gradientUnits="userSpaceOnUse">
<stop stop-color="#00FFA3"/>
<stop offset="1" stop-color="#DC1FFF"/>
</linearGradient>
</defs>
</svg>
