<svg width="74" height="75" viewBox="0 0 74 75" fill="none" xmlns="http://www.w3.org/2000/svg">
<path d="M37.1179 74.262C57.5239 74.262 73.9389 57.847 73.9389 37.441C73.9389 17.035 57.5239 0.619995 37.1179 0.619995C16.7119 0.619995 0.296875 17.035 0.296875 37.441C0.296875 57.848 16.7119 74.262 37.1179 74.262Z" fill="#2775CA"/>
<path d="M47.2439 43.27C47.2439 37.902 44.0219 36.06 37.5789 35.291C32.9759 34.676 32.0559 33.45 32.0559 31.303C32.0559 29.156 33.5909 27.776 36.6589 27.776C39.4209 27.776 40.9559 28.697 41.7219 30.998C41.8769 31.458 42.3369 31.764 42.7969 31.764H45.2529C45.8679 31.764 46.3279 31.304 46.3279 30.689V30.534C45.7129 27.158 42.9509 24.551 39.4239 24.245V20.563C39.4239 19.948 38.9639 19.488 38.1979 19.337H35.8969C35.2819 19.337 34.8219 19.797 34.6709 20.563V24.091C30.0679 24.706 27.1519 27.773 27.1519 31.61C27.1519 36.673 30.2189 38.669 36.6629 39.434C40.9599 40.2 42.3409 41.12 42.3409 43.576C42.3409 46.032 40.1939 47.718 37.2779 47.718C33.2899 47.718 31.9089 46.032 31.4489 43.73C31.2939 43.115 30.8339 42.809 30.3739 42.809H27.7669C27.1519 42.809 26.6919 43.269 26.6919 43.884V44.039C27.3069 47.876 29.7589 50.637 34.8219 51.403V55.085C34.8219 55.7 35.2819 56.16 36.0479 56.311H38.3489C38.9639 56.311 39.4239 55.851 39.5749 55.085V51.403C44.1729 50.634 47.2439 47.412 47.2439 43.27Z" fill="white"/>
<path d="M29.2939 59.379C17.3269 55.082 11.1889 41.734 15.6409 29.922C17.9419 23.478 23.0049 18.57 29.2939 16.269C29.9089 15.963 30.2149 15.503 30.2149 14.734V12.587C30.2149 11.972 29.9089 11.512 29.2939 11.361C29.1389 11.361 28.8339 11.361 28.6789 11.516C14.1049 16.119 6.12587 31.613 10.7289 46.19C13.4899 54.78 20.0889 61.379 28.6789 64.14C29.2939 64.446 29.9049 64.14 30.0599 63.525C30.2149 63.37 30.2149 63.219 30.2149 62.91V60.763C30.2139 60.3 29.7539 59.689 29.2939 59.379ZM45.5539 11.512C44.9389 11.206 44.3278 11.512 44.1728 12.127C44.0178 12.282 44.0179 12.433 44.0179 12.742V14.889C44.0179 15.504 44.4779 16.115 44.9389 16.424C56.9059 20.721 63.0439 34.069 58.5919 45.881C56.2909 52.325 51.2279 57.233 44.9389 59.534C44.3239 59.84 44.0179 60.3 44.0179 61.069V63.216C44.0179 63.831 44.3239 64.291 44.9389 64.442C45.0939 64.442 45.3989 64.442 45.5539 64.287C60.1279 59.684 68.1069 44.19 63.5039 29.613C60.7419 20.872 53.9929 14.274 45.5539 11.512Z" fill="white"/>
</svg>
