<svg width="74" height="75" viewBox="0 0 74 75" fill="none" xmlns="http://www.w3.org/2000/svg">
<path d="M36.998 0.619995C57.333 0.619995 73.819 17.106 73.819 37.441C73.819 57.776 57.332 74.262 36.998 74.262C16.664 74.262 0.177002 57.78 0.177002 37.441C0.177002 17.102 16.661 0.619995 36.998 0.619995Z" fill="#53AE94"/>
<path d="M41.542 32.535V27.057H54.068V18.711H19.96V27.057H32.487V32.53C22.306 32.998 14.651 35.014 14.651 37.429C14.651 39.844 22.31 41.861 32.487 42.331V59.876H41.545V42.329C51.708 41.86 59.347 39.845 59.347 37.432C59.347 35.019 51.707 33.004 41.545 32.535M41.545 40.845V40.84C41.29 40.856 39.976 40.935 37.053 40.935C34.716 40.935 33.071 40.869 32.492 40.839V40.846C23.497 40.448 16.784 38.881 16.784 37.007C16.784 35.133 23.499 33.569 32.492 33.169V39.285C33.081 39.325 34.766 39.425 37.092 39.425C39.885 39.425 41.289 39.309 41.547 39.285V33.17C50.524 33.57 57.222 35.138 57.222 37.005C57.222 38.873 50.521 40.441 41.547 40.841" fill="white"/>
</svg>
